<?xml version="1.0" encoding="UTF-8" standalone="no"?>
<svg
   xmlns:dc="http://purl.org/dc/elements/1.1/"
   xmlns:cc="http://creativecommons.org/ns#"
   xmlns:rdf="http://www.w3.org/1999/02/22-rdf-syntax-ns#"
   xmlns:svg="http://www.w3.org/2000/svg"
   xmlns="http://www.w3.org/2000/svg"
   xmlns:sodipodi="http://sodipodi.sourceforge.net/DTD/sodipodi-0.dtd"
   xmlns:inkscape="http://www.inkscape.org/namespaces/inkscape"
   version="1.1"
   id="svg10"
   width="819"
   height="637"
   viewBox="0 0 819 637"
   sodipodi:docname="SummitMedinaMap - Copy.svg"
   inkscape:version="1.0.2-2 (e86c870879, 2021-01-15)">
  <metadata
     id="metadata16">
    <rdf:RDF>
      <cc:Work
         rdf:about="">
        <dc:format>image/svg+xml</dc:format>
        <dc:type
           rdf:resource="http://purl.org/dc/dcmitype/StillImage" />
        <dc:title></dc:title>
      </cc:Work>
    </rdf:RDF>
  </metadata>
  <defs
     id="defs14" />
  <sodipodi:namedview
     pagecolor="#ffffff"
     bordercolor="#666666"
     borderopacity="1"
     objecttolerance="10"
     gridtolerance="10"
     guidetolerance="10"
     inkscape:pageopacity="0"
     inkscape:pageshadow="2"
     inkscape:window-width="1350"
     inkscape:window-height="696"
     id="namedview12"
     showgrid="false"
     inkscape:zoom="3.633312"
     inkscape:cx="379.67278"
     inkscape:cy="210.31257"
     inkscape:window-x="0"
     inkscape:window-y="0"
     inkscape:window-maximized="0"
     inkscape:current-layer="g18"
     inkscape:document-rotation="0"
     inkscape:snap-smooth-nodes="true"
     inkscape:snap-intersection-paths="true"
     inkscape:object-nodes="true" />
  <g
     inkscape:groupmode="layer"
     inkscape:label="Image"
     id="g18">
    <path
       style="fill:#ff0000;stroke:#000000;stroke-width:1px;stroke-linecap:butt;stroke-linejoin:miter;stroke-opacity:1"
       d="m 402.09279,272.50487 h -21.47457 v 11.10754 l 21.47457,0.7405 z"
       id="44333"
       inkscape:label="#44333" />
    <path
       style="fill:#00ff00;stroke:#000000;stroke-width:1px;stroke-linecap:butt;stroke-linejoin:miter;stroke-opacity:1"
       d="m 402.83329,239.18227 -0.7405,33.3226 h -21.47457 v 11.10754 l 21.47457,0.7405 -0.7405,16.29105 -40.72763,-1.481 1.481,16.29105 -16.29105,0.7405 2.22151,17.77206 16.29105,1.48101 v 17.03155 l -15.55055,7.40502 v -8.88602 l -11.84804,0.7405 v 16.29105 l -16.29105,2.22151 4.44301,5.18351 -14.06954,-4.44301 -2.96201,-17.03156 -32.58211,-0.7405 -1.481,17.77206 -9.62653,-0.7405 v -10.36704 l -9.62653,1.48101 0.7405,8.88603 -7.40502,-0.74051 1.481,-13.32904 -39.24663,1.48101 -0.7405,8.88603 8.88603,4.44301 16.29105,8.14553 -34.06311,-2.22151 -1.481,-18.51256 h -30.3606 V 342.8526 l -25.91758,-0.7405 v 16.29105 l -17.77206,-1.48101 1.48101,-20.73406 19.99356,0.7405 -0.7405,-13.32904 -19.99357,1.481 0.74051,-25.17708 15.55055,2.22151 v -23.69608 l 26.65808,-0.7405 v -31.1011 l -8.14552,-1.481 0.7405,-7.40503 h 8.14552 v -6.66452 h 43.68964 v 7.40502 h 15.55055 v 7.40503 l 17.77206,-0.7405 -8.88603,-7.40503 34.06311,-0.7405 -2.22151,-11.84804 17.03156,-1.481 -0.7405,6.66452 h 30.36059 v 5.92402 l 20.73407,2.2215 -2.22151,5.18352 11.10754,-3.70251 z"
       id="44256"
       inkscape:label="#44256" />
    <path
       style="fill:#00ffff;stroke:#000000;stroke-width:1px;stroke-linecap:butt;stroke-linejoin:miter;stroke-opacity:1"
       d="m 401.35229,422.08635 v 18.51256 l -11.10754,-1.481 0.7405,-19.25306 z"
       id="44230"
       inkscape:label="#44230" />
    <path
       style="fill:#ff6600;stroke:#000000;stroke-width:1px;stroke-linecap:butt;stroke-linejoin:miter;stroke-opacity:1"
       d="m 401.35229,300.64396 v 121.44239 l -10.36704,-2.2215 -0.7405,19.25306 -19.99356,-0.7405 0.7405,-5.92402 15.55055,-1.48101 -2.96201,-8.88603 -14.81005,2.96201 -2.2215,8.14553 h -7.40503 l -8.14552,-13.32904 -14.81005,-2.22151 -3.70251,-11.84804 H 311.7515 l -0.7405,-7.40502 -16.29106,-0.74051 v -14.81004 l 21.47457,0.7405 -5.18351,-12.58854 14.06954,4.44301 -4.44301,-5.18351 16.29105,-2.22151 v -16.29105 l 11.84804,-0.7405 v 8.88602 l 15.55055,-7.40502 v -17.03155 l -16.29105,-1.48101 -2.22151,-17.77206 16.29105,-0.7405 -1.481,-16.29105 z"
       id="44281"
       inkscape:label="#44281" />
    <path
       style="fill:#800080;stroke:#000000;stroke-width:1px;stroke-linecap:butt;stroke-linejoin:miter;stroke-opacity:1"
       d="m 370.25119,438.37741 0.7405,-5.92402 15.55055,-1.48101 -2.96201,-8.88603 -14.81005,2.96201 -2.2215,8.14553 h -7.40503 l -8.14552,-13.32904 -14.81005,-2.22151 -3.70251,-11.84804 -8.88603,1.48101 1.481,33.3226 z"
       id="44270"
       inkscape:label="#44270" />
    <path
       style="fill:#ff0000;stroke:#000000;stroke-width:1px;stroke-linecap:butt;stroke-linejoin:miter;stroke-opacity:1"
       d="m 325.08054,440.59891 -1.481,-33.3226 -11.84804,-1.48101 -0.7405,-7.40502 -16.29106,-0.74051 v -14.81004 l 21.47457,0.7405 -5.18351,-12.58854 -2.96201,-17.03156 -32.58211,-0.7405 -1.481,17.77206 -9.62653,-0.7405 v -10.36704 l -9.62653,1.48101 0.7405,8.88603 -7.40502,-0.74051 -13.32905,9.62654 -34.06311,-2.22151 -0.7405,-8.88603 h -22.21507 v 21.47457 h 11.10754 l -0.74051,16.29105 -21.47457,-0.7405 v 16.29105 l 11.84804,-2.22151 9.62653,3.70252 8.14553,4.44301 0.7405,9.62653 h 14.81005 l 19.99356,-11.10753 14.06955,2.2215 v 7.40503 h 8.88603 v 5.18351 z"
       id="42273"
       inkscape:label="#44273" />
    <path
       style="fill:#0000ff;stroke:#000000;stroke-width:1px;stroke-linecap:butt;stroke-linejoin:miter;stroke-opacity:1"
       d="m 210.30267,357.66265 -0.7405,8.88603 25.17708,12.58854 13.32905,-9.62654 1.481,-13.32904 z"
       id="44215"
       inkscape:label="#44215" />
    <path
       style="fill:#ff00ff;stroke:#000000;stroke-width:1px;stroke-linecap:butt;stroke-linejoin:miter;stroke-opacity:1"
       d="m 199.19514,358.40315 0.7405,9.62653 h -22.21507 v 21.47457 h 11.10754 l -0.74051,16.29105 -21.47457,-0.7405 v 16.29105 l -17.03155,-4.44301 0.7405,13.32904 h -8.14552 l -7.40503,-3.70251 -5.18351,4.44301 h -13.32905 l -0.7405,-13.32904 -8.14553,-5.18352 -2.2215,4.44302 h -6.664524 l 0.740502,-13.32905 H 77.012247 v -44.43014 l 26.658083,-0.7405 10.36704,12.58854 h 11.84803 l -0.7405,-14.06955 17.77206,1.48101 V 342.1121 l 25.91758,0.7405 v 15.55055 z"
       id="44254"
       inkscape:label="#44254" />
    <path
       style="fill:#008000;stroke:#000000;stroke-width:1px;stroke-linecap:butt;stroke-linejoin:miter;stroke-opacity:1"
       d="m 254.73282,440.59891 v -5.18351 h -8.88603 v -7.40503 l -14.06955,-2.2215 -19.99356,11.10753 h -14.81005 l -0.7405,-9.62653 -8.14553,-4.44301 -6.66452,5.92401 2.96201,11.84804 z"
       id="44217"
       inkscape:label="#44217" />
    <path
       style="fill:#ffff00;stroke:#000000;stroke-width:1px;stroke-linecap:butt;stroke-linejoin:miter;stroke-opacity:1"
       d="m 188.0876,422.82686 -9.62653,-3.70252 -11.84804,2.22151 -17.03155,-4.44301 0.7405,13.32904 h -8.14552 l -7.40503,-3.70251 -5.18351,4.44301 h -13.32905 v 0 9.62653 h 68.12622 l -2.96201,-11.84804 z"
       id="44214"
       inkscape:label="#44214" />
    <path
       style="fill:#00ffff;stroke:#000000;stroke-width:1px;stroke-linecap:butt;stroke-linejoin:miter;stroke-opacity:1"
       d="m 116.25887,440.59891 -0.7405,-22.95557 -8.14553,-5.18352 -2.2215,4.44302 h -6.664524 l -39.246626,-3.70252 -0.740502,14.06955 -22.955574,-0.7405 -0.740502,11.84804 z"
       id="44287"
       inkscape:label="#44287" />
    <path
       style="fill:#000080;stroke:#000000;stroke-width:1px;stroke-linecap:butt;stroke-linejoin:miter;stroke-opacity:1"
       d="m 98.486816,416.90284 0.740502,-13.32905 H 77.012247 v -32.5821 H 51.835166 l -5.183516,5.92402 -11.848038,-0.7405 v -25.91759 l -9.626531,-2.96201 -1.481005,17.77206 h -8.886029 v 19.99356 l 9.626531,1.48101 -0.740502,19.99356 -8.886029,-0.7405 -1.481004,28.13909 -0.740503,2.96201 22.215072,1.48101 0.740502,-11.84804 22.955574,0.7405 0.740502,-14.06955 z"
       id="44235"
       inkscape:label="#44235" />
    <path
       style="fill:#800080;stroke:#000000;stroke-width:1px;stroke-linecap:butt;stroke-linejoin:miter;stroke-opacity:1"
       d="m 14.810047,385.06123 9.626531,1.48101 -0.740502,19.99356 -8.886029,-0.7405 z"
       id="44880"
       inkscape:label="#44880" />
    <path
       style="fill:#800000;stroke:#000000;stroke-width:1px;stroke-linecap:butt;stroke-linejoin:miter;stroke-opacity:1"
       d="m 14.810047,365.06767 0.740503,-52.57567 20.734066,0.7405 0.740503,-13.32904 40.72763,0.7405 -0.740502,12.58854 48.132653,-0.7405 0.7405,12.58854 19.99357,-1.481 0.7405,13.32904 -19.99356,-0.7405 -1.48101,20.73406 0.7405,14.06955 h -11.84803 l -10.36704,-12.58854 -26.658083,0.7405 v 11.84804 H 51.835166 l -5.183516,5.92402 -11.848038,-0.7405 v -25.91759 l -9.626531,-2.96201 -1.481005,17.77206 z"
       id="44275"
       inkscape:label="#44275" />
    <path
       style="fill:#008000;stroke:#000000;stroke-width:1px;stroke-linecap:butt;stroke-linejoin:miter;stroke-opacity:1"
       d="M 37.025119,299.90346 36.284616,313.2325 15.55055,312.492 14.810047,298.42246 Z"
       id="44090"
       inkscape:label="#44090" />
    <path
       style="fill:#000080;stroke:#000000;stroke-width:1px;stroke-linecap:butt;stroke-linejoin:miter;stroke-opacity:1"
       d="m 77.012247,313.2325 0.740502,-12.58854 2.221507,-62.9427 h 81.455264 l -0.7405,7.40503 8.14552,1.481 v 31.1011 l -26.65808,0.7405 v 23.69608 l -15.55055,-2.22151 -1.48101,12.58854 z"
       id="44253"
       inkscape:label="#44253" />
    <path
       style="fill:#ffff00;stroke:#000000;stroke-width:1px;stroke-linecap:butt;stroke-linejoin:miter;stroke-opacity:1"
       d="m 169.57504,231.03674 -0.7405,-64.42371 82.19576,1.48101 2.22151,57.01868 h 16.29105 l 2.22151,11.84804 -34.06311,0.7405 8.88603,7.40503 -17.77206,0.7405 v -7.40503 h -15.55055 v -7.40502 z"
       id="44280"
       inkscape:label="#44280" />
    <path
       style="fill:#00ffff;stroke:#000000;stroke-width:1px;stroke-linecap:butt;stroke-linejoin:miter;stroke-opacity:1"
       d="m 251.0303,168.09404 84.41728,-3.70251 1.481,74.05023 -20.73407,-2.2215 v -5.92402 h -30.36059 l 0.7405,-6.66452 -17.03156,1.481 h -16.29105 z"
       id="44212"
       inkscape:label="#44212" />
    <path
       style="fill:#008000;stroke:#000000;stroke-width:1px;stroke-linecap:butt;stroke-linejoin:miter;stroke-opacity:1"
       d="m 402.83329,239.18227 -1.481,61.46169 h 41.46813 v 14.06955 l -8.88603,12.58854 H 467.257 l 6.66452,-8.88603 V 312.492 h 14.81005 l 5.92402,-2.96201 -0.74051,-34.06311 11.84804,-1.481 -6.66452,-17.77206 h -4.44301 l -4.44302,-18.51256 h -14.06954 l -0.74051,6.66452 -5.18351,-0.7405 -3.70251,-7.40502 z"
       id="path72"
       inkscape:label="#44333" />
    <path
       style="fill:#0000ff;stroke:#000000;stroke-width:1px;stroke-linecap:butt;stroke-linejoin:miter;stroke-opacity:1"
       d="m 401.35229,300.64396 1.481,62.2022 11.84804,0.74051 -1.48101,-10.36704 h 9.62654 l -0.74051,11.10754 13.32905,-6.66452 35.54411,19.25306 -1.481,-7.40503 14.06954,0.74051 -17.77206,-9.62653 11.10754,-8.88603 0.7405,-8.88603 -8.88603,0.7405 9.62653,-7.40502 -11.10753,-8.88603 h -33.32261 l 8.88603,-12.58854 v -14.06955 z"
       id="44321"
       inkscape:label="#44321" />
    <path
       style="fill:#800000;stroke:#000000;stroke-width:1px;stroke-linecap:butt;stroke-linejoin:miter;stroke-opacity:1"
       d="m 402.83329,362.84616 -1.481,77.75275 h 39.24662 l -0.7405,9.62653 8.14553,-1.481 1.481,-8.14553 12.58854,-0.7405 v 9.62653 l 15.55055,0.7405 3.70251,6.66452 h 10.36704 l 5.18351,5.92402 17.03156,0.74051 3.70251,-17.77206 -8.88603,-2.96201 v -5.92402 l 5.92402,-0.7405 0.7405,-2.96201 h 5.92402 v -8.88603 l 3.70251,-0.7405 -2.96201,-14.81005 h -9.62653 l -9.62653,-13.32904 v -5.92402 h -11.10753 l -0.74051,-6.66452 -11.84803,0.7405 4.44301,-13.32904 -14.06954,-0.74051 1.481,7.40503 -35.54411,-19.25306 -13.32905,6.66452 0.74051,-11.10754 h -9.62654 l 1.48101,10.36704 z"
       id="44203"
       inkscape:label="#44203" />
    <path
       style="fill:#ff0000;stroke:#000000;stroke-width:1px;stroke-linecap:butt;stroke-linejoin:miter;stroke-opacity:1"
       d="m 440.59891,440.59891 -0.7405,9.62653 -1.481,60.7212 149.58148,3.70251 -2.22151,-8.14553 -14.81005,-9.62653 -11.84804,-1.481 v -15.55055 l -8.14552,-8.88603 c 0,0 -9.62653,-0.7405 -9.62653,2.22151 0,2.96201 0,25.91758 0,25.91758 l -11.10754,-2.96201 -5.18352,-5.18352 -4.44301,2.22151 -8.88603,-4.44301 h -5.18352 v -6.66452 l 7.40503,-5.92402 v -12.58854 l -17.03156,-0.74051 -5.18351,-5.92402 h -10.36704 l -3.70251,-6.66452 -15.55055,-0.7405 v -9.62653 l -12.58854,0.7405 -1.481,8.14553 -8.14553,1.481 z"
       id="44216"
       inkscape:label="#44216" />
    <path
       style="fill:#00ff00;stroke:#000000;stroke-width:1px;stroke-linecap:butt;stroke-linejoin:miter;stroke-opacity:1"
       d="m 507.98463,165.87253 7.40502,17.03156 -3.70251,4.44301 -23.69608,-0.7405 -28.87959,-15.55055 6.66452,-5.92402 z"
       id="44141"
       inkscape:label="#44141" />
    <path
       style="fill:#ff6600;stroke:#000000;stroke-width:1px;stroke-linecap:butt;stroke-linejoin:miter;stroke-opacity:1"
       d="m 507.98463,165.87253 7.40502,-0.7405 -5.92402,-8.88603 17.77206,1.48101 3.70251,15.55055 -7.40502,7.40502 v 3.70251 l 41.46813,-0.7405 11.10754,4.44301 5.18351,18.51256 -17.77205,2.22151 v 4.44301 h 6.66452 v 8.14553 l 14.06954,-0.7405 0.74051,15.55055 h -6.66453 v 19.25306 l -12.58854,1.481 -0.7405,-6.66452 h -5.18352 l -2.2215,-11.10753 -6.66452,1.481 -9.62653,-7.40502 -7.40503,-10.36704 -5.18351,-1.481 -3.70252,-8.14553 -3.70251,2.22151 -5.92402,17.03156 -2.96201,8.14552 1.48101,4.44302 -14.81005,11.10753 h -4.44301 l -4.44302,-18.51256 -0.7405,-11.84804 -11.10754,-13.32904 8.88603,0.7405 0.7405,-26.65808 23.69608,0.7405 3.70251,-4.44301 z"
       id="44264"
       inkscape:label="#44264" />
    <path
       style="fill:#800080;stroke:#000000;stroke-width:1px;stroke-linecap:butt;stroke-linejoin:miter;stroke-opacity:1"
       d="m 556.11728,310.27049 v -11.10753 l -16.29105,-1.48101 4.44302,-6.66452 -0.74051,-5.92402 -8.14552,8.14553 -7.40503,-5.18352 8.14553,-10.36703 h -11.10754 l -0.7405,-5.92402 h -11.10753 l -2.22151,-5.92402 h 2.96201 v -12.58854 l -9.62653,-3.70251 -5.18352,6.66452 6.66452,17.77206 -11.84804,1.481 0.74051,34.06311 -5.92402,2.96201 h -14.81005 v 5.92402 l -6.66452,8.88603 6.66452,-8.88603 5.92402,8.88603 18.51256,-2.22151 -0.7405,5.92402 -3.70252,5.18352 2.22151,7.40502 11.84804,-1.481 5.92402,-8.14553 5.18351,6.66452 7.40503,1.48101 -2.22151,-7.40503 7.40502,0.74051 -2.962,-8.14553 -2.96201,-4.44301 7.40502,-11.84804 13.32904,5.92402 7.40503,1.481 z"
       id="44313"
       inkscape:label="#44313" />
    <path
       style="fill:#00ff00;stroke:#000000;stroke-width:1px;stroke-linecap:butt;stroke-linejoin:miter;stroke-opacity:1"
       d="m 526.49719,342.1121 -7.40503,-1.48101 -5.18351,-6.66452 -5.92402,8.14553 -11.84804,1.481 -2.22151,-7.40502 3.70252,-5.18352 0.7405,-5.92402 -18.51256,2.22151 -5.92402,-8.88603 -6.66452,8.88603 11.10753,8.88603 -9.62653,7.40502 8.88603,-0.7405 -0.7405,8.88603 -11.10754,8.88603 17.77206,9.62653 -4.44301,13.32904 11.84803,-0.7405 0.74051,6.66452 h 11.10753 l 3.3124,-14.92564 6.82707,-0.91028 -1.82056,-6.37193 9.10277,-3.6411 3.6411,-6.37193 4.55138,-2.2757 7.28221,-0.45513 3.6411,-5.9168 z"
       id="44320"
       inkscape:label="#44320" />
    <path
       style="fill:#ff00ff;stroke:#000000;stroke-width:1px;stroke-linecap:butt;stroke-linejoin:miter;stroke-opacity:1"
       d="m 512.94058,373.66833 22.7569,-1.82055 -4.09624,5.46166 5.00651,15.47469 4.55139,6.82707 -4.55139,7.28221 -14.55358,1.8639 h -9.62653 l -9.62653,-13.32904 v -5.92402 l 3.3124,-14.92564 z"
       id="44314"
       inkscape:label="#44314" />
    <path
       style="fill:#ffff00;stroke:#000000;stroke-width:1px;stroke-linecap:butt;stroke-linejoin:miter;stroke-opacity:1"
       d="m 541.15914,399.6112 7.2822,4.09625 13.19901,-1.82056 7.73734,1.36542 c 0,0 9.5579,2.73083 9.5579,6.82707 0,4.09624 0,8.64762 0,8.64762 l 11.83359,1.36542 -0.91027,13.199 -12.28873,-1.36542 -0.45514,21.84663 -22.7569,-3.18597 7.73735,8.64763 -0.45514,13.65414 -2.56106,6.95711 -8.14552,-8.88603 -10.68491,1.01864 1.05838,27.12045 -11.10754,-2.96201 -5.18352,-5.18352 -4.44301,2.22151 -8.88603,-4.44301 h -5.18352 v -6.66452 l 7.40503,-5.92402 v -12.58854 l 3.70251,-17.77206 -8.88603,-2.96201 v -5.92402 l 5.92402,-0.7405 0.7405,-2.96201 h 5.92402 v -8.88603 l 3.70251,-0.7405 -2.96201,-14.81005 14.55358,-1.8639 z"
       id="44319"
       inkscape:label="#44319" />
    <path
       style="fill:#ff6600;stroke:#000000;stroke-width:1px;stroke-linecap:butt;stroke-linejoin:miter;stroke-opacity:1"
       d="m 569.37769,403.25231 -0.45513,-25.94287 -33.22508,-5.46166 -4.09624,5.46166 5.00651,15.47469 4.55139,6.82707 7.2822,4.09625 13.19901,-1.82056 z"
       id="44301"
       inkscape:label="#44301" />
    <path
       style="fill:#00ffff;stroke:#000000;stroke-width:1px;stroke-linecap:butt;stroke-linejoin:miter;stroke-opacity:1"
       d="m 535.69748,371.84778 15.01955,-14.10928 7.28221,1.36542 v 2.73083 h 5.9168 l 8.19248,-0.45514 -3.18596,15.92983 z"
       id="44311"
       inkscape:label="#44311" />
    <path
       style="fill:#0000ff;stroke:#000000;stroke-width:1px;stroke-linecap:butt;stroke-linejoin:miter;stroke-opacity:1"
       d="m 550.71703,357.7385 -11.37845,-9.10276 -3.6411,5.9168 -11.83359,2.73083 -3.6411,6.37193 -9.10277,3.6411 1.82056,6.37193 22.7569,-1.82055 z"
       id="44307"
       inkscape:label="#44307" />
    <path
       style="fill:#ff8080;stroke:#000000;stroke-width:1px;stroke-linecap:butt;stroke-linejoin:miter;stroke-opacity:1"
       d="m 572.10852,361.37961 5.00652,-3.18597 3.18597,-0.45514 -3.64111,-7.73734 6.37194,-0.45514 2.73082,-2.27569 -9.5579,-4.09624 -3.18596,2.27569 -5.46166,-5.46166 -5.91679,0.45514 0.45514,-3.18597 -8.64763,-0.45514 3.64111,5.9168 -0.91028,4.09624 9.5579,5.46166 -7.73735,6.82707 v 2.73083 z"
       id="44304"
       inkscape:label="#44304" />
    <path
       style="fill:#008000;stroke:#000000;stroke-width:1px;stroke-linecap:butt;stroke-linejoin:miter;stroke-opacity:1"
       d="m 565.73659,352.27685 -9.5579,-5.46166 -8.64762,6.82707 3.18596,4.09624 7.28221,1.36542 z"
       id="44308"
       inkscape:label="#44308" />
    <path
       style="fill:#ffff00;stroke:#000000;stroke-width:1px;stroke-linecap:butt;stroke-linejoin:miter;stroke-opacity:1"
       d="m 556.17869,346.81519 -8.19248,-4.55138 -5.46166,1.82055 -4.55138,-4.55138 -5.46166,0.91028 -0.83081,-4.99568 -7.40502,-0.74051 2.22151,7.40503 12.84139,6.52364 8.19249,5.00652 z"
       id="44302"
       inkscape:label="#44302" />
    <path
       style="fill:#800000;stroke:#000000;stroke-width:1px;stroke-linecap:butt;stroke-linejoin:miter;stroke-opacity:1"
       d="m 553.44786,336.80215 -4.55138,-6.37193 -2.40573,-13.4952 -13.32904,-5.92402 -7.40502,11.84804 5.92401,12.58854 0.83081,4.99568 5.46166,-0.91028 4.55138,4.55138 5.46166,-1.82055 8.19248,4.55138 0.91028,-4.09624 z"
       id="44303"
       inkscape:label="#44303" />
    <path
       style="fill:#0000ff;stroke:#000000;stroke-width:1px;stroke-linecap:butt;stroke-linejoin:miter;stroke-opacity:1"
       d="m 553.89578,318.41602 2.2215,-8.14553 21.47457,-0.7405 0.8886,9.06664 25.48774,-0.45514 0.45513,20.93635 -15.47469,0.45514 -3.18597,7.73735 -9.5579,-4.09624 -3.18596,2.27569 -5.46166,-5.46166 -5.91679,0.45514 0.45514,-3.18597 -8.64763,-0.45514 -4.55138,-6.37193 -2.40573,-13.4952 z"
       id="44310"
       inkscape:label="#44310" />
    <path
       style="fill:#800080;stroke:#000000;stroke-width:1px;stroke-linecap:butt;stroke-linejoin:miter;stroke-opacity:1"
       d="m 604.42332,339.07784 -15.47469,0.45514 -3.18597,7.73735 -2.73082,2.27569 -6.37194,0.45514 3.64111,7.73734 5.00652,4.09625 v 4.09624 h 5.00651 l 0.45514,4.09624 6.37193,4.09624 10.46818,-0.91027 7.73735,-3.64111 10.46817,-1.82055 10.92331,3.6411 15.4747,6.82708 v -7.28221 h -3.64111 l -1.82055,-5.46166 -4.09624,0.45514 v -16.38497 l -27.76342,-1.36542 4.55138,-5.00651 v -3.18597 z"
       id="44305"
       inkscape:label="#44305" />
    <path
       style="fill:#ff0000;stroke:#000000;stroke-width:1px;stroke-linecap:butt;stroke-linejoin:miter;stroke-opacity:1"
       d="m 580.30101,357.7385 -8.19249,3.64111 -3.18596,15.92983 0.45513,25.94287 7.10341,3.28349 2.49919,2.91573 -0.0447,9.27547 11.83359,1.36542 11.95347,1.02202 7.08106,-4.99839 0.41653,-6.24799 7.08105,-0.41653 0.83307,-7.49758 -7.91412,0.83306 -2.08267,-5.83146 8.74719,-6.24798 v -3.7488 l -8.33065,0.41653 -0.94482,-14.1621 -10.46818,0.91027 -6.37193,-4.09624 -0.45514,-4.09624 h -5.00651 v -4.09624 z"
       id="44306"
       inkscape:label="#44306" />
    <path
       style="fill:#ff8080;stroke:#000000;stroke-width:1px;stroke-linecap:butt;stroke-linejoin:miter;stroke-opacity:1"
       d="m 627.71461,405.28621 -1.2496,9.58025 10.41331,-0.41654 0.41654,-4.58186 h 5.83145 l -5.41492,-7.08105 z"
       id="44250"
       inkscape:label="#44250" />
    <path
       style="fill:#008000;stroke:#000000;stroke-width:1px;stroke-linecap:butt;stroke-linejoin:miter;stroke-opacity:1"
       d="m 607.60929,373.2132 0.94482,14.1621 8.33065,-0.41653 v 3.7488 l -8.74719,6.24798 2.08267,5.83146 7.91412,-0.83306 -0.83307,7.49758 -7.08105,0.41653 -0.41653,6.24799 -7.08106,4.99839 -11.95347,-1.02202 -0.91027,13.199 -12.28873,-1.36542 -0.45514,21.84663 16.44389,-0.58518 13.32905,11.24638 0.41653,-10.82984 18.32743,1.24959 9.16372,1.2496 1.66613,-4.99839 8.74718,-0.41653 -4.99839,-5.41493 -9.99678,-0.41653 -4.99839,-4.58186 7.49759,-0.41653 -1.66613,-7.08105 9.16371,-4.99839 -3.33226,-13.32905 -10.41331,0.41654 1.2496,-9.58025 9.99678,-2.4992 5.41492,7.08105 h -5.83145 l -0.41654,4.58186 2.4992,14.99518 h 7.08105 l 5.83146,1.66613 4.58186,-1.66613 2.49919,4.16532 h 9.16372 l 0.41653,-4.16532 3.33226,0.41653 0.83307,-40.40366 -7.08106,0.41653 -4.58185,0.41653 h -2.4992 v -6.24799 h -6.66452 l -0.0772,-5.82332 -15.4747,-6.82708 -10.92331,-3.6411 -10.46817,1.82055 z"
       id="44312"
       inkscape:label="#44312" />
    <path
       style="fill:#ff6600;stroke:#000000;stroke-width:1px;stroke-linecap:butt;stroke-linejoin:miter;stroke-opacity:1"
       d="m 652.21282,370.93751 0.0772,13.10553 h 6.66452 v 6.24799 l 14.16211,-0.83306 -0.83307,-22.90929 -8.74718,1.24959 -0.41653,3.7488 z"
       id="44260"
       inkscape:label="#44260" />
    <path
       style="fill:#0000ff;stroke:#000000;stroke-width:1px;stroke-linecap:butt;stroke-linejoin:miter;stroke-opacity:1"
       d="m 672.28359,429.86163 -3.33226,-0.41653 -0.41653,4.16532 h -9.16372 l -2.49919,-4.16532 -4.58186,1.66613 -12.91251,-1.66613 -8.33065,3.33226 1.66613,7.08105 -7.49759,0.41653 4.99839,4.58186 9.99678,0.41653 4.99839,5.41493 -8.74718,0.41653 -1.66613,4.99839 -27.49115,-2.49919 -0.41653,10.82984 -13.32905,-11.24638 -16.44389,0.58518 -22.7569,-3.18597 7.73735,8.64763 -0.45514,13.65414 -2.56106,6.95711 16.56874,1.66613 0.83307,7.49759 11.24638,-0.83307 0.83306,-4.58186 16.66131,2.91573 0.83306,-8.33065 16.66131,1.2496 -1.2496,-3.33226 29.57381,2.08266 0.83307,-39.5706 19.57703,0.41654 1.2496,-0.41654 z"
       id="44685"
       inkscape:label="#44685" />
    <path
       style="fill:#00ffff;stroke:#000000;stroke-width:1px;stroke-linecap:butt;stroke-linejoin:miter;stroke-opacity:1"
       d="m 651.04043,478.17941 -3.74879,40.40366 -59.33275,-3.93392 -2.22151,-8.14553 -14.81005,-9.62653 -11.84804,-1.481 v -15.55055 l 16.56874,1.66613 0.83307,7.49759 11.24638,-0.83307 0.83306,-4.58186 16.66131,2.91573 0.83306,-8.33065 16.66131,1.2496 -1.2496,-3.33226 z"
       id="44720"
       inkscape:label="#44720" />
    <path
       style="fill:#ff8080;stroke:#000000;stroke-width:1px;stroke-linecap:butt;stroke-linejoin:miter;stroke-opacity:1"
       d="m 672.28358,366.54868 -8.74718,1.24959 -0.41653,3.7488 -10.90705,-0.60956 h -3.64111 l -1.82055,-5.46166 -4.09624,0.45514 v -16.38497 l -27.76342,-1.36542 4.55138,-5.00651 v -3.18597 l -15.01956,-0.91028 -0.45513,-20.93635 14.16617,0.50594 -0.41654,-8.33065 13.32905,0.41653 -0.41654,-10.41332 h 43.73593 z"
       id="44278"
       inkscape:label="#44278" />
    <path
       style="fill:#00ff00;stroke:#000000;stroke-width:1px;stroke-linecap:butt;stroke-linejoin:miter;stroke-opacity:1"
       d="m 631.04687,310.73331 -13.32905,-0.41653 0.41654,-10.82985 5.41492,0.41653 -0.41653,-16.6613 h 22.07622 v 8.74718 l 6.24799,0.41654 v 7.91411 h -20.82663 z"
       id="44262"
       inkscape:label="#44262" />
    <path
       style="fill:#008000;stroke:#000000;stroke-width:1px;stroke-linecap:butt;stroke-linejoin:miter;stroke-opacity:1"
       d="m 623.54928,299.90346 -5.41492,-0.41653 -0.41654,10.82985 0.41654,8.33065 -14.16617,-0.50594 -25.48774,0.45514 -0.8886,-9.06664 2.96201,-34.80361 6.34055,-0.23141 0.41654,-9.99678 6.66452,0.41653 -0.41654,9.58025 h 9.16372 l -2.91573,12.07945 h 6.24799 l -0.83306,6.24799 h 9.16371 l 0.41654,-6.24799 8.33065,1.2496 z"
       id="44221"
       inkscape:label="#44221" />
    <path
       style="fill:#ffff00;stroke:#000000;stroke-width:1px;stroke-linecap:butt;stroke-linejoin:miter;stroke-opacity:1"
       d="m 578.33235,236.22026 h 6.66453 l 13.56045,0.37025 -6.66453,-10.82985 20.4101,-0.41653 4.99839,5.83145 v 5.83146 l 54.9823,0.41653 2.08267,62.89642 h -22.9093 v -7.91411 l -6.24799,-0.41654 v -8.74718 h -22.07622 v 4.58186 l -8.33065,-1.2496 -0.41654,6.24799 h -9.16371 l 0.83306,-6.24799 h -6.24799 l 2.91573,-12.07945 h -9.16372 l 0.41654,-9.58025 -6.66452,-0.41653 -0.41654,9.99678 -6.34055,0.23141 -2.22151,-10.36703 -12.58854,-7.40503 12.58854,-1.481 z"
       id="44224"
       inkscape:label="#44224" />
    <path
       style="fill:#ff0000;stroke:#000000;stroke-width:1px;stroke-linecap:butt;stroke-linejoin:miter;stroke-opacity:1"
       d="m 672.28359,237.42357 0.83307,-78.30812 -5.83146,-8.33065 -4.16532,7.91412 -7.08106,-4.16533 -6.24799,-1.2496 -0.41653,-7.08105 -5.41492,-0.41654 v 13.74558 l -23.74236,-1.2496 0.41653,-6.66452 h -7.08105 l -0.41653,4.16533 -5.83146,0.41653 0.41653,11.24638 c 0,0 -7.08105,-1.66613 -8.74718,-1.66613 -1.66613,0 -6.24799,-4.99839 -6.24799,-4.99839 l -2.4992,1.2496 1.66613,3.74879 -39.57059,0.41653 v 4.16533 l -24.15889,-5.41493 2.77688,8.33066 -7.40502,7.40502 v 3.70251 l 41.46813,-0.7405 11.10754,4.44301 5.18351,18.51256 -17.77205,2.22151 v 4.44301 h 6.66452 v 8.14553 l 14.06954,-0.7405 0.74051,15.55055 13.56045,0.37025 -6.66453,-10.82985 20.4101,-0.41653 4.99839,5.83145 v 5.83146 z"
       id="44236"
       inkscape:label="#44236" />
    <path
       style="fill:#00ffff;stroke:#000000;stroke-width:1px;stroke-linecap:butt;stroke-linejoin:miter;stroke-opacity:1"
       d="m 509.46563,156.246 -5.4612,-17.54065 -12.07945,-4.58186 h 5.83146 c 0,0 3.74879,-2.91573 0.41653,-4.99839 -3.33226,-2.08266 -8.74718,-0.41653 -8.74718,-0.41653 l 3.33226,-7.49759 -4.99839,-7.91412 4.99839,-4.99839 0.83306,-5.83145 -9.58025,0.41653 v -8.747186 l 74.55934,1.249598 -0.83307,14.162108 -10.41331,0.41653 0.41653,7.91412 h -3.74879 l 0.41653,6.24799 h 6.24799 v 7.49759 h 2.91573 l 0.41653,15.82824 h 11.24638 v 4.99839 l 18.74396,0.41653 0.41654,12.07944 -32.07301,1.2496 v 4.16533 l -24.15889,-5.41493 -0.92563,-7.21989 z"
       id="44067"
       inkscape:label="#44067" />
    <path
       style="fill:#ff00ff;stroke:#000000;stroke-width:1px;stroke-linecap:butt;stroke-linejoin:miter;stroke-opacity:1"
       d="m 558.5702,95.385962 27.49115,0.416533 -0.41653,11.662915 h 4.16532 l -4.16532,9.58025 h 6.24798 l -0.41653,13.32904 4.99839,0.83306 0.41654,5.83146 3.33226,4.58186 -5.41493,-0.83307 5.83146,4.16533 v 4.58186 l -2.4992,4.16532 1.2496,3.7488 7.91412,-1.2496 0.41653,11.24638 -8.74718,-2.4992 -6.24799,-4.16532 -2.4992,1.2496 1.66613,3.74879 -7.49758,-0.83307 -0.41654,-12.07944 -18.74396,-0.41653 v -4.99839 h -11.24638 l -0.41653,-15.82824 h -2.91573 v -7.49759 h -6.24799 l -0.41653,-6.24799 h 3.74879 l -0.41653,-7.91412 10.41331,-0.41653 z"
       id="44056"
       inkscape:label="#44056" />
    <path
       style="fill:#008000;stroke:#000000;stroke-width:1px;stroke-linecap:butt;stroke-linejoin:miter;stroke-opacity:1"
       d="m 586.06135,95.802495 c 0,0 64.97908,0 64.97908,1.66613 0,1.66613 0,7.497585 0,7.497585 l 9.99678,0.83307 v 6.24799 l 5.83146,0.41653 0.41653,18.74396 7.08106,1.66613 -1.2496,26.24156 -5.83146,-8.33065 -4.16532,7.91412 -7.08106,-4.16533 -6.24799,-1.2496 -0.41653,-7.08105 -5.41492,-0.41654 v 13.74558 l -23.74236,-1.2496 0.41653,-6.66452 h -7.08105 l -0.41653,4.16533 -5.83146,0.41653 -7.91412,1.2496 -1.2496,-3.7488 2.4992,-4.16532 v -4.58186 l -5.83146,-4.16533 5.41493,0.83307 -3.33226,-4.58186 -0.41654,-5.83146 -4.99839,-0.83306 0.41653,-13.32904 h -6.24798 l 4.16532,-9.58025 h -4.16532 z"
       id="44087"
       inkscape:label="#44087" />
    <path
       style="fill:#0000ff;stroke:#000000;stroke-width:1px;stroke-linecap:butt;stroke-linejoin:miter;stroke-opacity:1"
       d="m 651.04043,104.96621 v -8.747183 l 22.90929,0.833065 0.41654,35.821798 -7.08106,-1.66613 -0.41653,-18.74396 -5.83146,-0.41653 v -6.24799 z"
       id="44202"
       inkscape:label="#44202" />
    <path
       style="fill:#00ffff;stroke:#000000;stroke-width:1px;stroke-linecap:butt;stroke-linejoin:miter;stroke-opacity:1"
       d="m 580.55386,274.72638 -2.22151,-10.36703 -12.58854,-7.40503 -0.7405,-6.66452 h -5.18352 l -2.2215,-11.10753 -6.66452,1.481 -17.03156,-17.77206 -5.18351,-1.481 -3.70252,-8.14553 -3.70251,2.22151 -8.88603,25.17708 1.48101,4.44302 -9.62653,4.44301 9.62653,3.70251 v 12.58854 h -2.96201 l 2.22151,5.92402 h 11.10753 l 0.7405,5.92402 h 11.10754 l -8.14553,10.36703 7.40503,5.18352 8.14552,-8.14553 0.74051,5.92402 -4.44302,6.66452 16.29105,1.48101 v 11.10753 l 21.47457,-0.7405 z"
       id="44223"
       inkscape:label="#44223" />
    <path
       style="fill:none;stroke:#000000;stroke-width:1px;stroke-linecap:butt;stroke-linejoin:miter;stroke-opacity:1"
       d="m 335.44758,164.39153 1.481,74.05023 -2.22151,5.18352 11.10754,-3.70251 57.01868,-0.7405 63.68321,-2.96201 3.70251,7.40502 5.18351,0.7405 0.74051,-6.66452 h 14.06954 l -0.7405,-11.84804 -11.10754,-13.32904 8.88603,0.7405 0.7405,-26.65808 -28.87959,-15.55055 6.66452,-5.92402 z"
       id="path61" />
    <path
       style="fill:none;stroke:#000000;stroke-width:1px;stroke-linecap:butt;stroke-linejoin:miter;stroke-opacity:1"
       d="m 335.44758,164.39153 130.32841,0.7405 z"
       id="path62" />
    <path
       style="fill:none;stroke:#000000;stroke-width:1px;stroke-linecap:butt;stroke-linejoin:miter;stroke-opacity:1"
       d="M 335.44758,164.39153 Z"
       id="path64" />
    <path
       style="fill:#ff00ff;stroke:#000000;stroke-width:1px;stroke-linecap:butt;stroke-linejoin:miter;stroke-opacity:1"
       d="m 335.44758,164.39153 1.481,74.05023 -2.22151,5.18352 11.10754,-3.70251 57.01868,-0.7405 63.68321,-2.96201 3.70251,7.40502 5.18351,0.7405 0.74051,-6.66452 h 14.06954 l -0.7405,-11.84804 -11.10754,-13.32904 8.88603,0.7405 0.7405,-26.65808 -28.87959,-15.55055 6.66452,-5.92402 z"
       id="44233"
       inkscape:label="#44233" />
    <path
       style="fill:#d5ffe6;stroke:#000000;stroke-width:1px;stroke-linecap:butt;stroke-linejoin:miter;stroke-opacity:1"
       d="m 402.83329,239.18227 1.48101,-74.59415 -68.86672,-0.19659 1.481,74.05023 -2.22151,5.18352 11.10754,-3.70251 z"
       id="path65" />
    <path
       style="fill:none;stroke:#000000;stroke-width:1px;stroke-linecap:butt;stroke-linejoin:miter;stroke-opacity:1"
       d="m 402.83329,239.18227 1.47714,-74.39948 61.46556,0.34924 -6.66452,5.92402 28.87959,15.55055 -0.7405,26.65808 -8.88603,-0.7405 11.10754,13.32904 0.7405,11.84804 h -14.06954 l -0.74051,6.66452 -5.18351,-0.7405 -3.70251,-7.40502 z"
       id="path67" />
  </g>
</svg>
